<svg width="182" height="44" viewBox="0 0 182 44" fill="none" xmlns="http://www.w3.org/2000/svg">
<g clip-path="url(#clip0)">
<path d="M14.642 1.84962L10.0671 10.5861C9.77167 11.1501 9.9662 11.8554 10.5046 12.1725L17.6681 16.3922C18.214 16.7137 18.9079 16.516 19.2183 15.9504L27.9745 0.000640869H17.6401C16.3892 0.000640869 15.2386 0.710169 14.642 1.84962Z" fill="#29A361"/>
<path d="M27.974 0L19.2182 15.95C18.9072 16.5154 18.2137 16.7136 17.6681 16.3923L15.7983 15.2913C16.2542 15.3674 16.7284 15.1503 16.9698 14.7099L25.0468 0H27.974Z" fill="#248F55"/>
<path d="M37.5549 8.45922L34.3995 1.94901C33.8206 0.75457 32.641 0.000640869 31.3513 0.000640869H22.228L29.2328 12.3166C29.2099 12.3273 29.1868 12.338 29.1638 12.3487C28.7232 12.5542 28.7412 13.2093 29.1923 13.3888L35.241 15.796C35.5213 15.9076 35.8358 15.7625 35.9434 15.4721L38.2751 9.17953C38.4475 8.71406 37.9948 8.26491 37.5549 8.45922Z" fill="#34CB79"/>
<path d="M38.2751 9.17899L35.9427 15.4715C35.8356 15.7627 35.5206 15.9079 35.2406 15.7958L33.4104 15.0671L35.5922 9.17899C35.7162 8.84506 35.5181 8.51988 35.2339 8.43458C34.9632 8.35326 34.7321 8.16954 34.6056 7.90858L31.7165 1.94875C31.1379 0.754706 29.9587 0 28.6685 0H31.3514C32.6407 0 33.8199 0.754706 34.3994 1.94875L37.5546 8.45945C37.9951 8.26524 38.4471 8.71361 38.2751 9.17899Z" fill="#2FB86E"/>
<path d="M31.4594 33.5593C31.3744 33.1978 30.9244 33.043 30.6498 33.3275L25.9222 38.2268C25.7336 38.4223 25.7336 38.7391 25.9222 38.9345L30.668 43.8526C30.9408 44.1353 31.3862 43.9844 31.4758 43.6291H38.4548C39.7397 43.6291 40.9156 42.8809 41.4969 41.6934L45.4791 33.5592H31.4594V33.5593Z" fill="#29A361"/>
<path d="M37.3508 33.5594L39.6137 37.1079C40.1253 37.9101 40.1819 38.9353 39.762 39.7928L38.8313 41.6935C38.2509 42.8806 37.0745 43.6293 35.79 43.6293H38.4547C39.7392 43.6293 40.9155 42.8806 41.497 41.6935L45.4789 33.5595H37.3508V33.5594Z" fill="#248F55"/>
<path d="M21.9354 42.6939V34.0356C21.9354 33.3849 21.4263 32.8572 20.7983 32.8572H2.06787L6.88812 42.0281C7.48559 43.1649 8.63469 43.8723 9.88372 43.8723H20.7983C21.4262 43.8723 21.9354 43.3448 21.9354 42.6939Z" fill="#29A361"/>
<path d="M10.0115 32.858L5.85181 40.0573L2.06787 32.858H10.0115Z" fill="#248F55"/>
<path d="M21.935 34.0358V42.6944C21.935 43.345 21.426 43.8724 20.7983 43.8724H17.8149C18.4427 43.8724 18.9517 43.345 18.9517 42.6944V34.0358C18.9517 33.3852 18.4427 32.8578 17.8149 32.8578H20.7983C21.426 32.8577 21.935 33.3852 21.935 34.0358Z" fill="#248F55"/>
<path d="M12.7847 25.2066L11.9436 18.6467C11.902 18.3226 11.6148 18.0949 11.3021 18.1379L4.94784 19.0129C4.46934 19.0788 4.29102 19.682 4.61877 20.0176L0.608522 26.0077C-0.126759 27.106 -0.201384 28.54 0.415585 29.7138L4.77955 38.0167L11.8654 25.7507C11.8679 25.7526 11.8703 25.7546 11.8729 25.7566C12.2773 26.0747 12.8515 25.7282 12.7847 25.2066Z" fill="#34CB79"/>
<path d="M11.8725 25.7566C11.8705 25.7545 11.8677 25.7526 11.8657 25.7506L4.77961 38.0163L3.32227 35.2438L9.08977 25.2586L9.2497 24.9816C9.33717 24.8302 9.50808 24.7648 9.67523 24.7984C9.67608 24.7986 9.67692 24.7987 9.67777 24.7989C10.0334 24.8646 10.3981 24.5576 10.3435 24.1362L9.60464 18.3712L11.3015 18.138C11.6145 18.095 11.9023 18.3232 11.9438 18.6464L12.785 25.2072C12.8518 25.7285 12.2771 26.0748 11.8725 25.7566Z" fill="#2FB86E"/>
<path d="M47.3959 25.5569L41.9103 17.3197C41.5739 16.8144 40.9193 16.6615 40.4062 16.9684L33.2574 21.2435C32.69 21.5828 32.5159 22.3475 32.8771 22.9139L42.9549 38.7151L47.6306 29.1643C48.1965 28.0083 48.1065 26.6239 47.3959 25.5569Z" fill="#34CB79"/>
<path d="M47.6305 29.1645L42.9541 38.7148L41.3857 36.2546L44.8568 29.1644C45.4227 28.0084 45.3329 26.6242 44.6221 25.5572L39.3306 17.6123L40.4064 16.9687C40.9193 16.6614 41.5741 16.8145 41.9102 17.32L47.3959 25.5573C48.1066 26.6243 48.1964 28.0085 47.6305 29.1645Z" fill="#2FB86E"/>
<path d="M67.8711 28.7695H61.4023V32.8359H69.043V36H57.2891V18.9375H69.0664V22.1133H61.4023V25.7109H67.8711V28.7695ZM76.6241 33.1875C77.1788 33.1875 77.6084 33.0391 77.9131 32.7422C78.2178 32.4375 78.3663 32.0156 78.3584 31.4766H82.0616C82.0616 32.8672 81.5616 34.0078 80.5616 34.8984C79.5694 35.7891 78.2881 36.2344 76.7178 36.2344C74.8741 36.2344 73.4209 35.6562 72.3584 34.5C71.2959 33.3438 70.7647 31.7422 70.7647 29.6953V29.5312C70.7647 28.25 70.9991 27.1211 71.4678 26.1445C71.9444 25.1602 72.628 24.4062 73.5186 23.8828C74.4092 23.3516 75.4639 23.0859 76.6827 23.0859C78.3311 23.0859 79.6397 23.543 80.6084 24.457C81.5772 25.3711 82.0616 26.6094 82.0616 28.1719H78.3584C78.3584 27.5156 78.1983 27.0117 77.878 26.6602C77.5577 26.3086 77.128 26.1328 76.5889 26.1328C75.5655 26.1328 74.9678 26.7852 74.7959 28.0898C74.7413 28.5039 74.7139 29.0742 74.7139 29.8008C74.7139 31.0742 74.8663 31.957 75.1709 32.4492C75.4756 32.9414 75.96 33.1875 76.6241 33.1875ZM84.1934 29.543C84.1934 28.2773 84.4395 27.1523 84.9317 26.168C85.4239 25.1758 86.1309 24.4141 87.0528 23.8828C87.9747 23.3516 89.0567 23.0859 90.2989 23.0859C92.1973 23.0859 93.6934 23.6758 94.7872 24.8555C95.8809 26.0273 96.4278 27.625 96.4278 29.6484V29.7891C96.4278 31.7656 95.877 33.3359 94.7755 34.5C93.6817 35.6562 92.1973 36.2344 90.3223 36.2344C88.5177 36.2344 87.0684 35.6953 85.9747 34.6172C84.8809 33.5312 84.2911 32.0625 84.2052 30.2109L84.1934 29.543ZM88.1427 29.7891C88.1427 30.9609 88.3263 31.8203 88.6934 32.3672C89.0606 32.9141 89.6036 33.1875 90.3223 33.1875C91.7286 33.1875 92.4473 32.1055 92.4786 29.9414V29.543C92.4786 27.2695 91.752 26.1328 90.2989 26.1328C88.9786 26.1328 88.2638 27.1133 88.1544 29.0742L88.1427 29.7891ZM110.9 29.7539C110.9 31.7227 110.454 33.2969 109.564 34.4766C108.681 35.6484 107.485 36.2344 105.978 36.2344C104.814 36.2344 103.857 35.8086 103.107 34.957V40.875H99.1573V23.3203H102.849L102.966 24.4922C103.724 23.5547 104.72 23.0859 105.954 23.0859C107.517 23.0859 108.732 23.6641 109.599 24.8203C110.466 25.9688 110.9 27.5508 110.9 29.5664V29.7539ZM106.95 29.5078C106.95 27.2578 106.294 26.1328 104.982 26.1328C104.044 26.1328 103.419 26.4688 103.107 27.1406V32.1328C103.45 32.8359 104.083 33.1875 105.005 33.1875C106.263 33.1875 106.911 32.1016 106.95 29.9297V29.5078ZM117.778 36H113.817V18H117.778V36ZM128.323 36C128.183 35.7422 128.058 35.3633 127.948 34.8633C127.222 35.7773 126.206 36.2344 124.902 36.2344C123.706 36.2344 122.691 35.875 121.855 35.1562C121.019 34.4297 120.601 33.5195 120.601 32.4258C120.601 31.0508 121.109 30.0117 122.124 29.3086C123.14 28.6055 124.616 28.2539 126.554 28.2539H127.773V27.5859C127.773 26.4219 127.269 25.8398 126.261 25.8398C125.323 25.8398 124.855 26.3008 124.855 27.2227H120.905C120.905 25.9961 121.425 25 122.464 24.2344C123.511 23.4688 124.843 23.0859 126.46 23.0859C128.077 23.0859 129.355 23.4805 130.292 24.2695C131.23 25.0586 131.71 26.1406 131.734 27.5156V33.1289C131.749 34.293 131.929 35.1836 132.273 35.8008V36H128.323ZM125.851 33.4219C126.343 33.4219 126.749 33.3164 127.07 33.1055C127.398 32.8945 127.632 32.6562 127.773 32.3906V30.3633H126.624C125.249 30.3633 124.562 30.9805 124.562 32.2148C124.562 32.5742 124.683 32.8672 124.925 33.0938C125.167 33.3125 125.476 33.4219 125.851 33.4219ZM140.252 33.1875C140.807 33.1875 141.237 33.0391 141.541 32.7422C141.846 32.4375 141.994 32.0156 141.987 31.4766H145.69C145.69 32.8672 145.19 34.0078 144.19 34.8984C143.198 35.7891 141.916 36.2344 140.346 36.2344C138.502 36.2344 137.049 35.6562 135.987 34.5C134.924 33.3438 134.393 31.7422 134.393 29.6953V29.5312C134.393 28.25 134.627 27.1211 135.096 26.1445C135.573 25.1602 136.256 24.4062 137.147 23.8828C138.037 23.3516 139.092 23.0859 140.311 23.0859C141.959 23.0859 143.268 23.543 144.237 24.457C145.205 25.3711 145.69 26.6094 145.69 28.1719H141.987C141.987 27.5156 141.826 27.0117 141.506 26.6602C141.186 26.3086 140.756 26.1328 140.217 26.1328C139.194 26.1328 138.596 26.7852 138.424 28.0898C138.369 28.5039 138.342 29.0742 138.342 29.8008C138.342 31.0742 138.494 31.957 138.799 32.4492C139.104 32.9414 139.588 33.1875 140.252 33.1875ZM154.454 36.2344C152.509 36.2344 150.935 35.6562 149.732 34.5C148.529 33.3359 147.927 31.8242 147.927 29.9648V29.6367C147.927 28.3398 148.165 27.1953 148.642 26.2031C149.126 25.2109 149.829 24.4453 150.751 23.9062C151.673 23.3594 152.767 23.0859 154.033 23.0859C155.814 23.0859 157.22 23.6406 158.251 24.75C159.283 25.8516 159.798 27.3906 159.798 29.3672V30.9023H151.947C152.087 31.6133 152.396 32.1719 152.872 32.5781C153.349 32.9844 153.966 33.1875 154.724 33.1875C155.974 33.1875 156.95 32.75 157.654 31.875L159.458 34.0078C158.966 34.6875 158.267 35.2305 157.361 35.6367C156.462 36.0352 155.493 36.2344 154.454 36.2344ZM154.009 26.1328C152.853 26.1328 152.165 26.8984 151.947 28.4297H155.931V28.125C155.947 27.4922 155.786 27.0039 155.45 26.6602C155.115 26.3086 154.634 26.1328 154.009 26.1328Z" fill="#322153"/>
</g>
<defs>
<clipPath id="clip0">
<rect width="182" height="44" fill="white"/>
</clipPath>
</defs>
</svg>
